HIERARCHY
ROOT Hips
{
	OFFSET	0.000000	0.000000	0.000000
	CHANNELS 6 Xposition Yposition Zposition Zrotation Xrotation Yrotation
	JOINT LeftHip
	{
		OFFSET	7.620000	0.000000	0.000000
		CHANNELS 3 Zrotation Xrotation Yrotation
		JOINT LeftKnee
		{
			OFFSET	0.000000	-44.449999	0.000000
			CHANNELS 3 Zrotation Xrotation Yrotation
			JOINT LeftAnkle
			{
				OFFSET	0.000000	-39.369999	0.000000
				CHANNELS 3 Zrotation Xrotation Yrotation
				JOINT LeftAnkleEnd
				{
					OFFSET	0.000000	-8.890000	-3.810000
					CHANNELS 3 Zrotation Xrotation Yrotation
					End Site
					{
						OFFSET	0.000000	0.000000	15.240000
					}
				}
			}
		}
	}
	JOINT RightHip
	{
		OFFSET	-7.620000	0.000000	0.000000
		CHANNELS 3 Zrotation Xrotation Yrotation
		JOINT RightKnee
		{
			OFFSET	0.000000	-44.449999	0.000000
			CHANNELS 3 Zrotation Xrotation Yrotation
			JOINT RightAnkle
			{
				OFFSET	0.000000	-39.369999	0.000000
				CHANNELS 3 Zrotation Xrotation Yrotation
				JOINT RightAnkleEnd
				{
					OFFSET	0.000000	-8.890000	-3.810000
					CHANNELS 3 Zrotation Xrotation Yrotation
					End Site
					{
						OFFSET	0.000000	0.000000	15.240000
					}
				}
			}
		}
	}
	JOINT Chest
	{
		OFFSET	0.000000	7.620000	-2.540000
		CHANNELS 3 Zrotation Xrotation Yrotation
		JOINT Chest2
		{
			OFFSET	0.000000	7.620000	0.000000
			CHANNELS 3 Zrotation Xrotation Yrotation
			JOINT LeftCollar
			{
				OFFSET	7.620000	33.020000	2.540000
				CHANNELS 3 Zrotation Xrotation Yrotation
				JOINT LeftShoulder
				{
					OFFSET	12.700000	0.000000	0.000000
					CHANNELS 3 Zrotation Xrotation Yrotation
					JOINT LeftElbow
					{
						OFFSET	0.000000	-30.480000	0.000000
						CHANNELS 3 Zrotation Xrotation Yrotation
						JOINT LeftWrist
						{
							OFFSET	0.000000	-24.130000	0.000000
							CHANNELS 3 Zrotation Xrotation Yrotation
							End Site
							{
								OFFSET	0.000000	-17.780000	0.000000
							}
						}
					}
				}
			}
			JOINT RightCollar
			{
				OFFSET	-7.620000	33.020000	2.540000
				CHANNELS 3 Zrotation Xrotation Yrotation
				JOINT RightShoulder
				{
					OFFSET	-12.700000	0.000000	0.000000
					CHANNELS 3 Zrotation Xrotation Yrotation
					JOINT RightElbow
					{
						OFFSET	0.000000	-30.480000	0.000000
						CHANNELS 3 Zrotation Xrotation Yrotation
						JOINT RightWrist
						{
							OFFSET	0.000000	-24.130000	0.000000
							CHANNELS 3 Zrotation Xrotation Yrotation
							End Site
							{
								OFFSET	0.000000	-17.780000	0.000000
							}
						}
					}
				}
			}
			JOINT Neck
			{
				OFFSET	0.000000	38.099999	2.540000
				CHANNELS 3 Zrotation Xrotation Yrotation
				JOINT Head
				{
					OFFSET	0.000000	16.510000	0.000000
					CHANNELS 3 Zrotation Xrotation Yrotation
					End Site
					{
						OFFSET	0.000000	10.160000	0.000000
					}
				}
			}
		}
	}
}
MOTION
Frames:     18
Frame Time: 0.016667
40.022724	95.586054	98.383024	-2.889023	-6.269107	5.858841	3.383058	11.363266	0.813295	-6.787304	-5.190460	-6.622773	-4.405800	-4.216228	0.655791	0.	0.	0.	5.150934	-20.877686	-5.348425	-6.126102	12.291492	3.653885	11.171907	5.988620	0.549250	0.	0.	0.	-0.000001	-0.000000	-0.000000	5.255813	-3.034200	-1.234387	-0.000001	0.000001	-0.000002	-2.271093	-1.540204	-18.941063	3.867852	7.557136	16.110594	-13.265940	6.116955	1.233482	-0.000001	0.000001	-0.000002	2.538263	2.039088	0.705599	-3.686031	-7.426723	-14.204406	4.644312	1.171796	0.403046	4.858048	5.568107	-4.803947	4.858049	5.568107	-4.803946	
40.480239	95.420424	99.884948	-2.793034	-6.544525	6.818833	3.770791	12.665697	0.701306	-7.787150	-5.356984	-7.135412	-3.815252	-4.515814	0.142070	0.	0.	0.	4.804814	-20.917683	-5.597732	-4.978260	10.125965	1.464131	11.577847	7.440228	0.626547	0.	0.	0.	-0.000000	-0.000001	-0.000001	5.054962	-2.979579	-1.663094	-0.000001	0.000000	-0.000001	-2.132188	-1.677517	-19.296432	4.603578	7.456813	16.028215	-14.871373	8.002426	1.092433	-0.000001	0.000000	-0.000001	2.787350	2.317533	-0.289975	-3.793452	-6.261422	-14.222913	4.692876	1.578039	0.631508	4.891586	5.677371	-5.193464	4.891587	5.677370	-5.193464	
40.912468	95.245919	101.244594	-2.747144	-6.768757	7.740730	4.233838	13.711538	0.595547	-8.788046	-5.308338	-7.619725	-3.124770	-4.722589	-0.338998	0.	0.	0.	4.487149	-20.833452	-6.033696	-4.098389	8.082958	-0.295917	11.914284	8.714038	0.807428	0.	0.	0.	0.000001	-0.000000	0.000001	4.918183	-3.045109	-2.089749	0.000000	-0.000000	-0.000003	-2.115988	-1.959916	-19.712883	5.315589	7.920386	15.871456	-16.337273	9.232847	0.795219	0.000000	-0.000000	-0.000003	3.047571	2.744570	-1.189415	-3.953795	-5.083272	-14.429641	4.741666	2.256210	0.886786	4.913520	5.823771	-5.569452	4.913520	5.823771	-5.569451	
41.466184	95.048722	102.638462	-2.720510	-6.954337	8.531729	4.560273	14.662127	0.440509	-9.602497	-5.056894	-7.885675	-2.439898	-5.072422	-0.729393	0.	0.	0.	4.186182	-20.793715	-6.538296	-3.369165	6.381420	-1.361425	12.251301	9.672551	0.756265	0.	0.	0.	-0.000000	0.000000	0.000001	4.889932	-3.130440	-2.393942	-0.000001	0.000000	-0.000003	-2.182925	-2.440749	-20.142923	5.858576	8.633121	15.480124	-17.525732	9.765475	0.442410	-0.000001	0.000000	-0.000003	3.227982	3.156201	-2.076316	-4.229689	-3.850737	-14.880258	4.981188	2.828020	1.136423	4.909664	5.931338	-5.912029	4.909666	5.931338	-5.912027	
42.153066	94.806867	104.020791	-2.614780	-7.176875	9.273687	4.754183	15.602407	0.283707	-10.416606	-4.655948	-7.997668	-1.812852	-5.448676	-1.257809	0.	0.	0.	3.877923	-20.742929	-7.041483	-2.938743	5.992514	-2.192422	12.637959	9.612482	1.007672	0.	0.	0.	-0.000003	-0.000000	0.000001	4.779879	-3.147252	-2.709745	-0.000000	-0.000001	0.000002	-2.241583	-2.936510	-20.508316	6.469305	9.505488	14.978026	-18.418291	9.598929	0.209807	-0.000000	-0.000001	0.000002	3.393687	3.502913	-2.771553	-4.523220	-2.600339	-15.418481	5.307639	3.272872	1.241454	4.939444	6.004642	-6.254594	4.939443	6.004642	-6.254594	
42.932422	94.512175	105.443378	-2.542405	-7.434660	9.844651	5.021220	16.509916	0.254737	-11.415977	-3.987782	-8.081615	-1.206467	-5.883669	-1.801237	0.	0.	0.	3.581530	-20.618643	-7.518840	-2.539734	5.869695	-2.622740	12.809380	9.505831	1.201641	0.	0.	0.	-0.000001	-0.000001	0.000001	4.792907	-3.098903	-2.936939	-0.000000	-0.000000	-0.000001	-2.373594	-3.548272	-20.729713	6.985815	10.602186	14.479682	-19.203876	8.704074	0.125388	-0.000000	-0.000000	-0.000001	3.492766	3.797110	-3.578935	-4.929790	-1.388736	-15.744285	5.481036	3.821904	1.610268	4.947734	5.976500	-6.536708	4.947735	5.976501	-6.536708	
43.702133	94.187234	106.878320	-2.512619	-7.664474	10.368456	5.331733	17.321573	0.337827	-12.382151	-2.985920	-8.195743	-0.741169	-6.482183	-2.324724	0.	0.	0.	3.468884	-20.488411	-8.005243	-2.430053	6.139540	-2.809393	12.687813	9.219806	1.378329	0.	0.	0.	0.000001	-0.000000	0.000000	4.847289	-3.082189	-3.119649	0.000000	0.000001	-0.000003	-2.509871	-4.249084	-20.885994	7.583831	11.768528	13.938344	-20.015265	7.537626	0.263158	0.000000	0.000001	-0.000003	3.517079	4.061381	-4.362130	-5.331033	-0.205299	-15.907869	5.437832	4.715100	1.989678	5.009287	5.936408	-6.765096	5.009288	5.936407	-6.765095	
44.565627	93.987295	108.430841	-2.402983	-7.835724	10.893099	5.629994	17.952202	0.464234	-13.527860	-1.635356	-8.322394	-0.239776	-7.038072	-2.887120	0.	0.	0.	3.327722	-20.296400	-8.617578	-2.526030	6.679293	-2.725214	12.175011	8.890397	1.490046	0.	0.	0.	-0.000001	-0.000000	0.000001	4.972471	-3.069002	-3.293398	0.000000	-0.000000	-0.000003	-2.806214	-4.997395	-21.031887	8.125725	12.843476	13.643888	-20.827839	6.254766	0.494169	0.000000	-0.000000	-0.000003	3.440013	4.223393	-5.219701	-5.865220	0.953404	-15.799833	5.322356	5.759709	2.448527	5.009553	5.835185	-6.959681	5.009553	5.835184	-6.959678	
45.541653	93.798120	110.032119	-2.373446	-7.921570	11.246732	5.862180	18.480577	0.838351	-14.570342	-0.151864	-8.462132	0.100473	-7.436812	-3.447225	0.	0.	0.	3.399545	-20.007603	-9.128187	-2.811104	7.246716	-2.440792	11.471625	8.812018	1.127861	0.	0.	0.	-0.000000	-0.000001	0.000000	5.096990	-3.231999	-3.407823	-0.000001	0.000000	0.000003	-3.034326	-5.564407	-21.133289	8.710976	13.842742	13.560955	-21.781200	4.867110	0.917780	-0.000001	0.000000	0.000003	3.315510	4.378778	-6.015869	-6.427789	2.067583	-15.492693	5.262897	6.956882	2.777122	5.069421	5.809821	-7.080280	5.069421	5.809823	-7.080284	
46.694310	93.633808	111.735368	-2.420542	-7.970830	11.647726	6.127396	18.853811	0.985565	-15.578365	1.573353	-8.443415	0.256184	-7.443763	-4.033586	0.	0.	0.	3.522944	-19.775534	-9.696836	-3.138203	7.967907	-2.140275	10.375776	9.104897	0.658446	0.	0.	0.	0.000000	0.000000	-0.000001	5.372615	-3.449912	-3.581756	-0.000001	-0.000000	0.000001	-3.333303	-6.119946	-21.255741	9.225446	14.825740	13.754625	-22.966192	3.429062	1.282292	-0.000001	-0.000000	0.000001	3.102353	4.527208	-6.799446	-6.989959	3.040758	-15.137938	5.045299	7.930885	3.116274	5.092628	5.831748	-7.137212	5.092631	5.831747	-7.137212	
47.923310	93.449159	113.517895	-2.472330	-7.972330	11.829858	6.310817	19.067993	1.279504	-16.554119	3.637314	-8.082532	0.149506	-7.206019	-4.838401	0.	0.	0.	3.757460	-19.497318	-9.966290	-3.554841	8.914914	-1.864912	9.123167	9.446597	0.460066	0.	0.	0.	-0.000000	-0.000001	0.000001	5.714266	-3.663921	-3.677143	0.000000	-0.000001	-0.000004	-3.694474	-6.739315	-21.198273	9.675375	15.907891	14.007954	-24.073215	1.826754	1.612325	0.000000	-0.000001	-0.000004	2.701454	4.728346	-7.290344	-7.475790	3.906011	-14.878198	5.007168	8.557764	3.410101	5.076943	5.842960	-7.119306	5.076942	5.842959	-7.119304	
49.333674	93.291058	115.260831	-2.581027	-8.022026	11.925271	6.464346	19.000109	1.428744	-17.547707	6.141714	-7.404226	-0.152114	-6.377877	-5.652634	0.	0.	0.	4.097724	-19.225155	-9.738769	-4.007148	10.068663	-1.733689	8.215046	9.907144	0.148232	0.	0.	0.	-0.000001	-0.000001	0.000001	6.109418	-3.820156	-3.766061	-0.000001	-0.000001	0.000001	-4.030061	-7.377348	-21.072388	9.969776	17.063601	14.124324	-25.073244	0.038875	2.168858	-0.000001	-0.000001	0.000001	2.261339	4.850821	-7.415062	-7.753129	4.665461	-14.837188	4.711544	8.788413	3.532429	5.103021	5.872524	-7.040459	5.103021	5.872524	-7.040458	
50.857239	93.107038	116.942318	-2.694926	-8.117733	11.751631	6.540294	18.738163	1.678070	-18.659086	8.951082	-6.481070	-0.708606	-4.925940	-6.329010	0.	0.	0.	4.263249	-18.969984	-8.910983	-4.130911	11.514149	-1.802776	7.559227	10.196490	-0.306956	0.	0.	0.	-0.000003	-0.000001	0.000000	6.531622	-3.925422	-3.816352	0.000000	-0.000001	-0.000003	-4.322578	-8.010102	-20.558661	10.133185	18.265089	14.135760	-25.717354	-1.963256	2.466931	0.000000	-0.000001	-0.000003	1.765894	5.107989	-7.200192	-7.961443	5.239381	-14.800323	4.425086	8.618318	3.533709	5.139680	5.954930	-6.879501	5.139678	5.954929	-6.879497	
52.586644	92.872925	118.527996	-2.846250	-8.250303	11.407296	6.547938	18.137476	1.944973	-19.944935	12.186837	-5.326556	-1.519338	-2.663972	-6.721354	0.	0.	0.	4.412739	-18.665823	-7.784949	-4.003350	12.999018	-1.988013	6.838316	10.239646	-0.776556	0.	0.	0.	0.000000	-0.000001	0.000000	7.075651	-4.018960	-3.888094	-0.000001	-0.000001	-0.000001	-4.730327	-8.519249	-19.877848	10.124131	19.462622	14.038130	-25.808823	-4.303303	2.763247	-0.000001	-0.000001	-0.000001	1.147201	5.350907	-6.669604	-8.157948	5.697874	-14.804476	4.157495	8.143188	3.447216	5.099820	6.038476	-6.601801	5.099822	6.038477	-6.601801	
54.302557	92.617310	120.091912	-3.023136	-8.249192	10.977660	6.610426	16.947029	2.239718	-21.408230	15.832149	-4.006531	-2.913324	0.466047	-6.728483	0.	0.	0.	4.520356	-18.166620	-6.803941	-3.631406	14.257830	-1.846859	6.019483	9.790719	-1.343534	0.	0.	0.	-0.000001	-0.000000	0.000001	7.625281	-4.232808	-3.861474	-0.000000	0.000000	-0.000003	-5.055167	-8.956087	-19.301590	9.859505	20.655910	13.812223	-25.270954	-6.778835	3.029007	-0.000000	0.000000	-0.000003	0.433984	5.868917	-6.129395	-8.160302	5.709675	-14.729602	3.830289	7.465457	3.295743	5.094427	6.205256	-6.294451	5.094428	6.205256	-6.294448	
55.976258	92.300934	121.657010	-3.143356	-8.293914	10.584957	6.929051	15.525990	2.573191	-23.359873	19.912144	-2.584796	-4.473157	4.106512	-6.459960	0.	0.	0.	4.689763	-17.215788	-6.234726	-3.274170	14.849031	-1.111226	5.035826	9.180264	-2.242138	0.	0.	0.	-0.000001	-0.000001	0.000000	8.117542	-4.320102	-3.834175	-0.000001	-0.000001	-0.000002	-5.301996	-9.293395	-18.939430	9.413152	21.695112	13.615335	-24.322388	-9.246679	3.307162	-0.000001	-0.000001	-0.000002	-0.208987	6.102906	-5.703598	-8.108832	5.656813	-14.607107	3.550007	6.769403	3.173775	5.066425	6.255492	-6.031429	5.066426	6.255492	-6.031428	
57.625668	91.918952	123.235858	-3.263840	-8.337790	10.192293	7.287074	13.985853	3.054616	-25.417456	24.048876	-1.238330	-5.936733	7.529457	-5.898586	0.	0.	0.	4.863308	-16.027906	-6.022487	-2.926384	15.120211	-0.099571	4.039029	8.363939	-3.061777	0.	0.	0.	0.000000	-0.000001	-0.000001	8.526807	-4.426292	-3.879082	-0.000001	0.000000	-0.000002	-5.460378	-9.412142	-18.832911	8.719193	22.675032	13.541964	-23.031250	-11.583159	3.418690	-0.000001	0.000000	-0.000002	-0.709043	6.334280	-5.260380	-8.062877	5.198779	-14.584909	3.292316	6.288131	3.085796	5.067838	6.387685	-5.730882	5.067841	6.387686	-5.730884	
59.263702	91.462255	124.797875	-3.326771	-8.334619	9.886428	7.651628	12.261320	3.801455	-27.549919	28.392221	-0.089850	-6.797662	10.148153	-5.029838	0.	0.	0.	5.024212	-14.800842	-5.896482	-2.680452	15.162329	0.583471	3.119660	7.513804	-3.566264	0.	0.	0.	-0.000003	-0.000002	0.000001	8.877321	-4.571868	-3.848541	-0.000001	0.000000	0.000000	-5.549767	-9.218116	-18.835825	7.891953	23.235268	13.327739	-21.531094	-13.491312	3.554604	-0.000001	0.000000	0.000000	-1.195441	6.403401	-4.952821	-8.034842	4.724060	-14.626186	3.323904	5.881514	2.958260	5.050860	6.481575	-5.475390	5.050860	6.481573	-5.475389	
